<?xml version="1.0" encoding="UTF-8" standalone="no"?><svg xmlns="http://www.w3.org/2000/svg" xmlns:xlink="http://www.w3.org/1999/xlink" contentStyleType="text/css" height="971px" preserveAspectRatio="none" style="width:858px;height:971px;background:#FFFFFF;" version="1.1" viewBox="0 0 858 971" width="858px" zoomAndPan="magnify"><defs/><g><ellipse cx="501.75" cy="20" fill="#222222" rx="10" ry="10" style="stroke:#222222;stroke-width:1.0;"/><rect fill="none" height="190.2031" style="stroke:#000000;stroke-width:1.5;" width="389" x="307.25" y="40"/><path d="M406.25,40 L406.25,49.2969 L396.25,59.2969 L307.25,59.2969 " fill="none" style="stroke:#000000;stroke-width:1.5;"/><text fill="#000000" font-family="sans-serif" font-size="14" lengthAdjust="spacing" textLength="89" x="310.25" y="53.9951">Initialization</text><rect fill="#F1F1F1" height="33.9688" rx="12.5" ry="12.5" style="stroke:#181818;stroke-width:0.5;" width="279" x="362.25" y="76.2969"/><text fill="#000000" font-family="sans-serif" font-size="12" lengthAdjust="spacing" textLength="259" x="372.25" y="97.4355">54 planchettes sont réparties en 2 joueurs</text><rect fill="#F1F1F1" height="33.9688" rx="12.5" ry="12.5" style="stroke:#181818;stroke-width:0.5;" width="369" x="317.25" y="130.2656"/><text fill="#000000" font-family="sans-serif" font-size="12" lengthAdjust="spacing" textLength="349" x="327.25" y="151.4043">Affiche"Joueur 1 pioche et pose la planchette sur la table"</text><rect fill="#F1F1F1" height="33.9688" rx="12.5" ry="12.5" style="stroke:#181818;stroke-width:0.5;" width="203" x="400.25" y="184.2344"/><text fill="#000000" font-family="sans-serif" font-size="12" lengthAdjust="spacing" textLength="183" x="410.25" y="205.373">Retire 1 planchette à la pioche</text><polygon fill="#F1F1F1" points="468.75,305.9136,534.75,305.9136,546.75,317.9136,534.75,329.9136,468.75,329.9136,456.75,317.9136,468.75,305.9136" style="stroke:#181818;stroke-width:0.5;"/><text fill="#000000" font-family="sans-serif" font-size="11" lengthAdjust="spacing" textLength="66" x="468.75" y="321.7217">Pioche vide</text><text fill="#000000" font-family="sans-serif" font-size="11" lengthAdjust="spacing" textLength="21" x="435.75" y="315.3193">non</text><text fill="#000000" font-family="sans-serif" font-size="11" lengthAdjust="spacing" textLength="17" x="546.75" y="315.3193">oui</text><rect fill="#F1F1F1" height="33.9688" rx="12.5" ry="12.5" style="stroke:#181818;stroke-width:0.5;" width="171" x="228" y="339.9136"/><text fill="#000000" font-family="sans-serif" font-size="12" lengthAdjust="spacing" textLength="151" x="238" y="361.0522">Affiche "Joueur 2 pioche"</text><rect fill="#F1F1F1" height="33.9688" rx="12.5" ry="12.5" style="stroke:#181818;stroke-width:0.5;" width="203" x="212" y="393.8823"/><text fill="#000000" font-family="sans-serif" font-size="12" lengthAdjust="spacing" textLength="183" x="222" y="415.021">Retire 1 planchette à la pioche</text><rect fill="#F1F1F1" height="33.9688" rx="12.5" ry="12.5" style="stroke:#181818;stroke-width:0.5;" width="244" x="191.5" y="447.8511"/><text fill="#000000" font-family="sans-serif" font-size="12" lengthAdjust="spacing" textLength="224" x="201.5" y="468.9897">Joueur 2 donne planchette à joueur 1</text><rect fill="#F1F1F1" height="33.9688" rx="12.5" ry="12.5" style="stroke:#181818;stroke-width:0.5;" width="293" x="167" y="501.8198"/><text fill="#000000" font-family="sans-serif" font-size="12" lengthAdjust="spacing" textLength="273" x="177" y="522.9585">Joueur 1 empile planchette avec un décalage</text><polygon fill="#F1F1F1" points="264.5,566.8862,362.5,566.8862,374.5,578.8862,362.5,590.8862,264.5,590.8862,252.5,578.8862,264.5,566.8862" style="stroke:#181818;stroke-width:0.5;"/><text fill="#000000" font-family="sans-serif" font-size="11" lengthAdjust="spacing" textLength="98" x="264.5" y="582.6943">Tour en équilibre</text><text fill="#000000" font-family="sans-serif" font-size="11" lengthAdjust="spacing" textLength="17" x="235.5" y="576.292">oui</text><text fill="#000000" font-family="sans-serif" font-size="11" lengthAdjust="spacing" textLength="21" x="374.5" y="576.292">non</text><rect fill="#F1F1F1" height="33.9688" rx="12.5" ry="12.5" style="stroke:#181818;stroke-width:0.5;" width="170" x="100" y="600.8862"/><text fill="#000000" font-family="sans-serif" font-size="12" lengthAdjust="spacing" textLength="150" x="110" y="622.0249">Affiche "Joueur 1 pioche"</text><rect fill="#F1F1F1" height="33.9688" rx="12.5" ry="12.5" style="stroke:#181818;stroke-width:0.5;" width="203" x="83.5" y="654.855"/><text fill="#000000" font-family="sans-serif" font-size="12" lengthAdjust="spacing" textLength="183" x="93.5" y="675.9937">Retire 1 planchette à la pioche</text><rect fill="#F1F1F1" height="33.9688" rx="12.5" ry="12.5" style="stroke:#181818;stroke-width:0.5;" width="244" x="63" y="708.8237"/><text fill="#000000" font-family="sans-serif" font-size="12" lengthAdjust="spacing" textLength="224" x="73" y="729.9624">Joueur 1 donne planchette à joueur 2</text><rect fill="#F1F1F1" height="33.9688" rx="12.5" ry="12.5" style="stroke:#181818;stroke-width:0.5;" width="294" x="38" y="762.7925"/><text fill="#000000" font-family="sans-serif" font-size="12" lengthAdjust="spacing" textLength="274" x="48" y="783.9312">Joueur 2 empile planchette avec un décalage</text><rect fill="#F1F1F1" height="33.9688" rx="12.5" ry="12.5" style="stroke:#181818;stroke-width:0.5;" width="180" x="352" y="600.8862"/><text fill="#000000" font-family="sans-serif" font-size="12" lengthAdjust="spacing" textLength="160" x="362" y="622.0249">Affiche: "Joueur 1 a perdu"</text><rect fill="#F1F1F1" height="33.9688" rx="12.5" ry="12.5" style="stroke:#181818;stroke-width:0.5;" width="256" x="562" y="339.9136"/><text fill="#000000" font-family="sans-serif" font-size="12" lengthAdjust="spacing" textLength="236" x="572" y="361.0522">Affiche "Pioche vide, la partie est nulle"</text><polygon fill="#F1F1F1" points="452.75,250.2031,550.75,250.2031,562.75,262.2031,550.75,274.2031,452.75,274.2031,440.75,262.2031,452.75,250.2031" style="stroke:#181818;stroke-width:0.5;"/><text fill="#000000" font-family="sans-serif" font-size="11" lengthAdjust="spacing" textLength="17" x="505.75" y="284.4136">oui</text><text fill="#000000" font-family="sans-serif" font-size="11" lengthAdjust="spacing" textLength="98" x="452.75" y="266.0112">Tour en équilibre</text><text fill="#000000" font-family="sans-serif" font-size="11" lengthAdjust="spacing" textLength="21" x="419.75" y="259.6089">non</text><rect fill="#F1F1F1" height="33.9688" rx="12.5" ry="12.5" style="stroke:#181818;stroke-width:0.5;" width="133" x="435.25" y="838.7612"/><text fill="#000000" font-family="sans-serif" font-size="12" lengthAdjust="spacing" textLength="113" x="445.25" y="859.8999">Affiche "Fin du jeu"</text><polygon fill="#F1F1F1" points="406.25,892.73,597.25,892.73,609.25,904.73,597.25,916.73,406.25,916.73,394.25,904.73,406.25,892.73" style="stroke:#181818;stroke-width:0.5;"/><text fill="#000000" font-family="sans-serif" font-size="11" lengthAdjust="spacing" textLength="187" x="410.25" y="908.5381">Le joueur 1 fait s'écrouler la tour</text><text fill="#000000" font-family="sans-serif" font-size="11" lengthAdjust="spacing" textLength="21" x="373.25" y="902.1357">non</text><text fill="#000000" font-family="sans-serif" font-size="11" lengthAdjust="spacing" textLength="17" x="609.25" y="902.1357">oui</text><rect fill="#F1F1F1" height="33.9688" rx="12.5" ry="12.5" style="stroke:#181818;stroke-width:0.5;" width="183" x="292.75" y="926.73"/><text fill="#000000" font-family="sans-serif" font-size="12" lengthAdjust="spacing" textLength="163" x="302.75" y="947.8687">Affiche "Joueur 1 à gagné!"</text><rect fill="#F1F1F1" height="33.9688" rx="12.5" ry="12.5" style="stroke:#181818;stroke-width:0.5;" width="184" x="527.25" y="926.73"/><text fill="#000000" font-family="sans-serif" font-size="12" lengthAdjust="spacing" textLength="164" x="537.25" y="947.8687">Affiche "Joueur 2 à gagné!"</text><line style="stroke:#181818;stroke-width:1.0;" x1="501.75" x2="501.75" y1="110.2656" y2="130.2656"/><polygon fill="#181818" points="497.75,120.2656,501.75,130.2656,505.75,120.2656,501.75,124.2656" style="stroke:#181818;stroke-width:1.0;"/><line style="stroke:#181818;stroke-width:1.0;" x1="501.75" x2="501.75" y1="164.2344" y2="184.2344"/><polygon fill="#181818" points="497.75,174.2344,501.75,184.2344,505.75,174.2344,501.75,178.2344" style="stroke:#181818;stroke-width:1.0;"/><line style="stroke:#181818;stroke-width:1.0;" x1="501.75" x2="501.75" y1="30" y2="76.2969"/><polygon fill="#181818" points="497.75,66.2969,501.75,76.2969,505.75,66.2969,501.75,70.2969" style="stroke:#181818;stroke-width:1.0;"/><line style="stroke:#181818;stroke-width:1.0;" x1="313.5" x2="313.5" y1="373.8823" y2="393.8823"/><polygon fill="#181818" points="309.5,383.8823,313.5,393.8823,317.5,383.8823,313.5,387.8823" style="stroke:#181818;stroke-width:1.0;"/><line style="stroke:#181818;stroke-width:1.0;" x1="313.5" x2="313.5" y1="427.8511" y2="447.8511"/><polygon fill="#181818" points="309.5,437.8511,313.5,447.8511,317.5,437.8511,313.5,441.8511" style="stroke:#181818;stroke-width:1.0;"/><line style="stroke:#181818;stroke-width:1.0;" x1="313.5" x2="313.5" y1="481.8198" y2="501.8198"/><polygon fill="#181818" points="309.5,491.8198,313.5,501.8198,317.5,491.8198,313.5,495.8198" style="stroke:#181818;stroke-width:1.0;"/><line style="stroke:#181818;stroke-width:1.0;" x1="185" x2="185" y1="634.855" y2="654.855"/><polygon fill="#181818" points="181,644.855,185,654.855,189,644.855,185,648.855" style="stroke:#181818;stroke-width:1.0;"/><line style="stroke:#181818;stroke-width:1.0;" x1="185" x2="185" y1="688.8237" y2="708.8237"/><polygon fill="#181818" points="181,698.8237,185,708.8237,189,698.8237,185,702.8237" style="stroke:#181818;stroke-width:1.0;"/><line style="stroke:#181818;stroke-width:1.0;" x1="185" x2="185" y1="742.7925" y2="762.7925"/><polygon fill="#181818" points="181,752.7925,185,762.7925,189,752.7925,185,756.7925" style="stroke:#181818;stroke-width:1.0;"/><line style="stroke:#181818;stroke-width:1.0;" x1="252.5" x2="185" y1="578.8862" y2="578.8862"/><line style="stroke:#181818;stroke-width:1.0;" x1="185" x2="185" y1="578.8862" y2="600.8862"/><polygon fill="#181818" points="181,590.8862,185,600.8862,189,590.8862,185,594.8862" style="stroke:#181818;stroke-width:1.0;"/><line style="stroke:#181818;stroke-width:1.0;" x1="374.5" x2="442" y1="578.8862" y2="578.8862"/><line style="stroke:#181818;stroke-width:1.0;" x1="442" x2="442" y1="578.8862" y2="600.8862"/><polygon fill="#181818" points="438,590.8862,442,600.8862,446,590.8862,442,594.8862" style="stroke:#181818;stroke-width:1.0;"/><line style="stroke:#181818;stroke-width:1.0;" x1="185" x2="185" y1="796.7612" y2="801.7612"/><line style="stroke:#181818;stroke-width:1.0;" x1="185" x2="832" y1="801.7612" y2="801.7612"/><polygon fill="#181818" points="828,544.8862,832,534.8862,836,544.8862,832,540.8862" style="stroke:#181818;stroke-width:1.0;"/><line style="stroke:#181818;stroke-width:1.0;" x1="832" x2="832" y1="262.2031" y2="801.7612"/><line style="stroke:#181818;stroke-width:1.0;" x1="832" x2="562.75" y1="262.2031" y2="262.2031"/><polygon fill="#181818" points="572.75,258.2031,562.75,262.2031,572.75,266.2031,568.75,262.2031" style="stroke:#181818;stroke-width:1.0;"/><line style="stroke:#181818;stroke-width:1.0;" x1="313.5" x2="313.5" y1="535.7886" y2="566.8862"/><polygon fill="#181818" points="309.5,556.8862,313.5,566.8862,317.5,556.8862,313.5,560.8862" style="stroke:#181818;stroke-width:1.0;"/><line style="stroke:#181818;stroke-width:1.0;" x1="456.75" x2="313.5" y1="317.9136" y2="317.9136"/><line style="stroke:#181818;stroke-width:1.0;" x1="313.5" x2="313.5" y1="317.9136" y2="339.9136"/><polygon fill="#181818" points="309.5,329.9136,313.5,339.9136,317.5,329.9136,313.5,333.9136" style="stroke:#181818;stroke-width:1.0;"/><line style="stroke:#181818;stroke-width:1.0;" x1="546.75" x2="690" y1="317.9136" y2="317.9136"/><line style="stroke:#181818;stroke-width:1.0;" x1="690" x2="690" y1="317.9136" y2="339.9136"/><polygon fill="#181818" points="686,329.9136,690,339.9136,694,329.9136,690,333.9136" style="stroke:#181818;stroke-width:1.0;"/><line style="stroke:#181818;stroke-width:1.0;" x1="501.75" x2="501.75" y1="274.2031" y2="305.9136"/><polygon fill="#181818" points="497.75,295.9136,501.75,305.9136,505.75,295.9136,501.75,299.9136" style="stroke:#181818;stroke-width:1.0;"/><line style="stroke:#181818;stroke-width:1.0;" x1="440.75" x2="24" y1="262.2031" y2="262.2031"/><polygon fill="#181818" points="20,536.8862,24,546.8862,28,536.8862,24,540.8862" style="stroke:#181818;stroke-width:1.0;"/><line style="stroke:#181818;stroke-width:1.0;" x1="24" x2="24" y1="262.2031" y2="818.7612"/><line style="stroke:#181818;stroke-width:1.0;" x1="24" x2="501.75" y1="818.7612" y2="818.7612"/><line style="stroke:#181818;stroke-width:1.0;" x1="501.75" x2="501.75" y1="818.7612" y2="838.7612"/><polygon fill="#181818" points="497.75,828.7612,501.75,838.7612,505.75,828.7612,501.75,832.7612" style="stroke:#181818;stroke-width:1.0;"/><line style="stroke:#181818;stroke-width:1.0;" x1="501.75" x2="501.75" y1="218.2031" y2="250.2031"/><polygon fill="#181818" points="497.75,240.2031,501.75,250.2031,505.75,240.2031,501.75,244.2031" style="stroke:#181818;stroke-width:1.0;"/><line style="stroke:#181818;stroke-width:1.0;" x1="394.25" x2="384.25" y1="904.73" y2="904.73"/><line style="stroke:#181818;stroke-width:1.0;" x1="384.25" x2="384.25" y1="904.73" y2="926.73"/><polygon fill="#181818" points="380.25,916.73,384.25,926.73,388.25,916.73,384.25,920.73" style="stroke:#181818;stroke-width:1.0;"/><line style="stroke:#181818;stroke-width:1.0;" x1="609.25" x2="619.25" y1="904.73" y2="904.73"/><line style="stroke:#181818;stroke-width:1.0;" x1="619.25" x2="619.25" y1="904.73" y2="926.73"/><polygon fill="#181818" points="615.25,916.73,619.25,926.73,623.25,916.73,619.25,920.73" style="stroke:#181818;stroke-width:1.0;"/><line style="stroke:#181818;stroke-width:1.0;" x1="501.75" x2="501.75" y1="872.73" y2="892.73"/><polygon fill="#181818" points="497.75,882.73,501.75,892.73,505.75,882.73,501.75,886.73" style="stroke:#181818;stroke-width:1.0;"/><!--MD5=[1425f9b93d29c3c1cf0ad8f57a5dd939]
@startuml
start

group Initialization 
    :54 planchettes sont réparties en 2 joueurs;
    :Affiche"Joueur 1 pioche et pose la planchette sur la table";
    :Retire 1 planchette à la pioche;
end group


while (Tour en équilibre) is (oui)
    if (Pioche vide) then (non)
        
        :Affiche "Joueur 2 pioche";
        :Retire 1 planchette à la pioche;
        :Joueur 2 donne planchette à joueur 1;
        :Joueur 1 empile planchette avec un décalage;
        if (Tour en équilibre) then (oui)
            :Affiche "Joueur 1 pioche";
            :Retire 1 planchette à la pioche;
            :Joueur 1 donne planchette à joueur 2;
            :Joueur 2 empile planchette avec un décalage;
        else (non)
            :Affiche: "Joueur 1 a perdu";
            kill
        endif
    else (oui)
        :Affiche "Pioche vide, la partie est nulle";
        kill
    endif


endwhile (non)
    :Affiche "Fin du jeu";
    if ( Le joueur 1 fait s'écrouler la tour) then (non)
        :Affiche "Joueur 1 à gagné!";
        kill
    else (oui)
        :Affiche "Joueur 2 à gagné!";
        kill
    endif
@enduml

PlantUML version 1.2022.2beta7(Unknown compile time)
(GPL source distribution)
Java Runtime: Java(TM) SE Runtime Environment
JVM: Java HotSpot(TM) 64-Bit Server VM
Default Encoding: UTF-8
Language: en
Country: US
--></g></svg>