<?xml version="1.0" encoding="UTF-8" standalone="no"?><svg xmlns="http://www.w3.org/2000/svg" xmlns:xlink="http://www.w3.org/1999/xlink" contentStyleType="text/css" height="866px" preserveAspectRatio="none" style="width:572px;height:866px;background:#FFFFFF;" version="1.1" viewBox="0 0 572 866" width="572px" zoomAndPan="magnify"><defs/><g><ellipse cx="285" cy="20" fill="#222222" rx="10" ry="10" style="stroke:#222222;stroke-width:1.0;"/><rect fill="#F1F1F1" height="33.9688" rx="12.5" ry="12.5" style="stroke:#181818;stroke-width:0.5;" width="182" x="194" y="50"/><text fill="#000000" font-family="sans-serif" font-size="12" lengthAdjust="spacing" textLength="162" x="204" y="71.1387">Affiche "Entrez un nombre"</text><rect fill="#F1F1F1" height="33.9688" rx="12.5" ry="12.5" style="stroke:#181818;stroke-width:0.5;" width="99" x="235.5" y="103.9688"/><text fill="#000000" font-family="sans-serif" font-size="12" lengthAdjust="spacing" textLength="70" x="245.5" y="125.1074">Saisis texte</text><text fill="#000000" font-family="sans-serif" font-size="12" font-style="italic" lengthAdjust="spacing" textLength="5" x="319.5" y="125.1074">t</text><polygon fill="#F1F1F1" points="259,213.6479,311,213.6479,323,225.6479,311,237.6479,259,237.6479,247,225.6479,259,213.6479" style="stroke:#181818;stroke-width:0.5;"/><text fill="#000000" font-family="sans-serif" font-size="11" font-style="italic" lengthAdjust="spacing" textLength="4" x="259" y="229.4561">t</text><text fill="#000000" font-family="sans-serif" font-size="11" lengthAdjust="spacing" textLength="44" x="267" y="229.4561">entier ?</text><text fill="#000000" font-family="sans-serif" font-size="11" lengthAdjust="spacing" textLength="17" x="230" y="223.0537">oui</text><text fill="#000000" font-family="sans-serif" font-size="11" lengthAdjust="spacing" textLength="21" x="323" y="223.0537">non</text><rect fill="#F1F1F1" height="33.9688" rx="12.5" ry="12.5" style="stroke:#181818;stroke-width:0.5;" width="162" x="115.75" y="247.6479"/><text fill="#000000" font-family="sans-serif" font-size="12" lengthAdjust="spacing" textLength="142" x="125.75" y="268.7866">Affiche "C'est un entier"</text><rect fill="#F1F1F1" height="33.9688" rx="12.5" ry="12.5" style="stroke:#181818;stroke-width:0.5;" width="151" x="297.75" y="247.6479"/><text fill="#000000" font-family="sans-serif" font-size="12" lengthAdjust="spacing" textLength="131" x="307.75" y="268.7866">Affiche "C'est un réel"</text><polygon fill="#F1F1F1" points="285,287.6167,297,299.6167,285,311.6167,273,299.6167,285,287.6167" style="stroke:#181818;stroke-width:0.5;"/><polygon fill="#F1F1F1" points="247.5,331.6167,322.5,331.6167,334.5,343.6167,322.5,355.6167,247.5,355.6167,235.5,343.6167,247.5,331.6167" style="stroke:#181818;stroke-width:0.5;"/><text fill="#000000" font-family="sans-serif" font-size="11" font-style="italic" lengthAdjust="spacing" textLength="4" x="247.5" y="347.4248">f</text><text fill="#000000" font-family="sans-serif" font-size="11" lengthAdjust="spacing" textLength="59" x="255.5" y="347.4248">inférieur à</text><text fill="#000000" font-family="sans-serif" font-size="11" font-style="italic" lengthAdjust="spacing" textLength="4" x="318.5" y="347.4248">t</text><text fill="#000000" font-family="sans-serif" font-size="11" lengthAdjust="spacing" textLength="21" x="214.5" y="341.0225">non</text><text fill="#000000" font-family="sans-serif" font-size="11" lengthAdjust="spacing" textLength="17" x="334.5" y="341.0225">oui</text><rect fill="#F1F1F1" height="33.9688" rx="12.5" ry="12.5" style="stroke:#181818;stroke-width:0.5;" width="147" x="83" y="365.6167"/><text fill="#000000" font-family="sans-serif" font-size="12" lengthAdjust="spacing" textLength="127" x="93" y="386.7554">Affiche "Trop grand!"</text><rect fill="#F1F1F1" height="33.9688" rx="12.5" ry="12.5" style="stroke:#181818;stroke-width:0.5;" width="237" x="38" y="419.5854"/><text fill="#000000" font-family="sans-serif" font-size="12" lengthAdjust="spacing" textLength="217" x="48" y="440.7241">Affiche "Entrez un nouveau nombre"</text><rect fill="#F1F1F1" height="33.9688" rx="12.5" ry="12.5" style="stroke:#181818;stroke-width:0.5;" width="99" x="107" y="473.5542"/><text fill="#000000" font-family="sans-serif" font-size="12" lengthAdjust="spacing" textLength="70" x="117" y="494.6929">Saisis texte</text><text fill="#000000" font-family="sans-serif" font-size="12" font-style="italic" lengthAdjust="spacing" textLength="5" x="191" y="494.6929">t</text><rect fill="#F1F1F1" height="33.9688" rx="12.5" ry="12.5" style="stroke:#181818;stroke-width:0.5;" width="139" x="344" y="365.6167"/><text fill="#000000" font-family="sans-serif" font-size="12" lengthAdjust="spacing" textLength="119" x="354" y="386.7554">Affiche "Trop petit!"</text><rect fill="#F1F1F1" height="33.9688" rx="12.5" ry="12.5" style="stroke:#181818;stroke-width:0.5;" width="237" x="295" y="419.5854"/><text fill="#000000" font-family="sans-serif" font-size="12" lengthAdjust="spacing" textLength="217" x="305" y="440.7241">Affiche "Entrez un nouveau nombre"</text><rect fill="#F1F1F1" height="33.9688" rx="12.5" ry="12.5" style="stroke:#181818;stroke-width:0.5;" width="99" x="364" y="473.5542"/><text fill="#000000" font-family="sans-serif" font-size="12" lengthAdjust="spacing" textLength="70" x="374" y="494.6929">Saisis texte</text><text fill="#000000" font-family="sans-serif" font-size="12" font-style="italic" lengthAdjust="spacing" textLength="5" x="448" y="494.6929">t</text><polygon fill="#F1F1F1" points="285,513.5229,297,525.5229,285,537.5229,273,525.5229,285,513.5229" style="stroke:#181818;stroke-width:0.5;"/><polygon fill="#F1F1F1" points="254,157.9375,316,157.9375,328,169.9375,316,181.9375,254,181.9375,242,169.9375,254,157.9375" style="stroke:#181818;stroke-width:0.5;"/><text fill="#000000" font-family="sans-serif" font-size="11" lengthAdjust="spacing" textLength="21" x="289" y="192.1479">non</text><text fill="#000000" font-family="sans-serif" font-size="11" font-style="italic" lengthAdjust="spacing" textLength="4" x="254" y="173.7456">t</text><text fill="#000000" font-family="sans-serif" font-size="11" lengthAdjust="spacing" textLength="36" x="262" y="173.7456">égal à</text><text fill="#000000" font-family="sans-serif" font-size="11" font-style="italic" lengthAdjust="spacing" textLength="4" x="302" y="173.7456">f</text><text fill="#000000" font-family="sans-serif" font-size="11" lengthAdjust="spacing" textLength="6" x="310" y="173.7456">?</text><text fill="#000000" font-family="sans-serif" font-size="11" lengthAdjust="spacing" textLength="17" x="225" y="167.3433">oui</text><rect fill="#F1F1F1" height="33.9688" rx="12.5" ry="12.5" style="stroke:#181818;stroke-width:0.5;" width="97" x="236.5" y="627.9253"/><text fill="#000000" font-family="sans-serif" font-size="12" lengthAdjust="spacing" textLength="77" x="246.5" y="649.064">Affiche "oui "</text><rect fill="#F1F1F1" height="33.9688" rx="12.5" ry="12.5" style="stroke:#181818;stroke-width:0.5;" width="126" x="222" y="681.894"/><text fill="#000000" font-family="sans-serif" font-size="12" lengthAdjust="spacing" textLength="106" x="232" y="703.0327">Ajoute 1 au score</text><rect fill="#F1F1F1" height="33.9688" rx="12.5" ry="12.5" style="stroke:#181818;stroke-width:0.5;" width="129" x="220.5" y="735.8628"/><text fill="#000000" font-family="sans-serif" font-size="12" lengthAdjust="spacing" textLength="109" x="230.5" y="757.0015">Affiche "Score=  "</text><polygon fill="#F1F1F1" points="254,579.5229,316,579.5229,328,591.5229,316,603.5229,254,603.5229,242,591.5229,254,579.5229" style="stroke:#181818;stroke-width:0.5;"/><text fill="#000000" font-family="sans-serif" font-size="11" lengthAdjust="spacing" textLength="17" x="289" y="613.7334">oui</text><text fill="#000000" font-family="sans-serif" font-size="11" font-style="italic" lengthAdjust="spacing" textLength="4" x="254" y="595.3311">t</text><text fill="#000000" font-family="sans-serif" font-size="11" lengthAdjust="spacing" textLength="36" x="262" y="595.3311">égal à</text><text fill="#000000" font-family="sans-serif" font-size="11" font-style="italic" lengthAdjust="spacing" textLength="4" x="302" y="595.3311">f</text><text fill="#000000" font-family="sans-serif" font-size="11" lengthAdjust="spacing" textLength="6" x="310" y="595.3311">?</text><polygon fill="#F1F1F1" points="285,789.8315,297,801.8315,285,813.8315,273,801.8315,285,789.8315" style="stroke:#181818;stroke-width:0.5;"/><ellipse cx="285" cy="844.8315" rx="11" ry="11" style="stroke:#222222;stroke-width:1.0;fill:none;"/><ellipse cx="285" cy="844.8315" fill="#222222" rx="6" ry="6" style="stroke:#111111;stroke-width:1.0;"/><line style="stroke:#181818;stroke-width:1.0;" x1="285" x2="285" y1="30" y2="50"/><polygon fill="#181818" points="281,40,285,50,289,40,285,44" style="stroke:#181818;stroke-width:1.0;"/><line style="stroke:#181818;stroke-width:1.0;" x1="285" x2="285" y1="83.9688" y2="103.9688"/><polygon fill="#181818" points="281,93.9688,285,103.9688,289,93.9688,285,97.9688" style="stroke:#181818;stroke-width:1.0;"/><line style="stroke:#181818;stroke-width:1.0;" x1="247" x2="196.75" y1="225.6479" y2="225.6479"/><line style="stroke:#181818;stroke-width:1.0;" x1="196.75" x2="196.75" y1="225.6479" y2="247.6479"/><polygon fill="#181818" points="192.75,237.6479,196.75,247.6479,200.75,237.6479,196.75,241.6479" style="stroke:#181818;stroke-width:1.0;"/><line style="stroke:#181818;stroke-width:1.0;" x1="323" x2="373.25" y1="225.6479" y2="225.6479"/><line style="stroke:#181818;stroke-width:1.0;" x1="373.25" x2="373.25" y1="225.6479" y2="247.6479"/><polygon fill="#181818" points="369.25,237.6479,373.25,247.6479,377.25,237.6479,373.25,241.6479" style="stroke:#181818;stroke-width:1.0;"/><line style="stroke:#181818;stroke-width:1.0;" x1="196.75" x2="196.75" y1="281.6167" y2="299.6167"/><line style="stroke:#181818;stroke-width:1.0;" x1="196.75" x2="273" y1="299.6167" y2="299.6167"/><polygon fill="#181818" points="263,295.6167,273,299.6167,263,303.6167,267,299.6167" style="stroke:#181818;stroke-width:1.0;"/><line style="stroke:#181818;stroke-width:1.0;" x1="373.25" x2="373.25" y1="281.6167" y2="299.6167"/><line style="stroke:#181818;stroke-width:1.0;" x1="373.25" x2="297" y1="299.6167" y2="299.6167"/><polygon fill="#181818" points="307,295.6167,297,299.6167,307,303.6167,303,299.6167" style="stroke:#181818;stroke-width:1.0;"/><line style="stroke:#181818;stroke-width:1.0;" x1="156.5" x2="156.5" y1="399.5854" y2="419.5854"/><polygon fill="#181818" points="152.5,409.5854,156.5,419.5854,160.5,409.5854,156.5,413.5854" style="stroke:#181818;stroke-width:1.0;"/><line style="stroke:#181818;stroke-width:1.0;" x1="156.5" x2="156.5" y1="453.5542" y2="473.5542"/><polygon fill="#181818" points="152.5,463.5542,156.5,473.5542,160.5,463.5542,156.5,467.5542" style="stroke:#181818;stroke-width:1.0;"/><line style="stroke:#181818;stroke-width:1.0;" x1="413.5" x2="413.5" y1="399.5854" y2="419.5854"/><polygon fill="#181818" points="409.5,409.5854,413.5,419.5854,417.5,409.5854,413.5,413.5854" style="stroke:#181818;stroke-width:1.0;"/><line style="stroke:#181818;stroke-width:1.0;" x1="413.5" x2="413.5" y1="453.5542" y2="473.5542"/><polygon fill="#181818" points="409.5,463.5542,413.5,473.5542,417.5,463.5542,413.5,467.5542" style="stroke:#181818;stroke-width:1.0;"/><line style="stroke:#181818;stroke-width:1.0;" x1="235.5" x2="156.5" y1="343.6167" y2="343.6167"/><line style="stroke:#181818;stroke-width:1.0;" x1="156.5" x2="156.5" y1="343.6167" y2="365.6167"/><polygon fill="#181818" points="152.5,355.6167,156.5,365.6167,160.5,355.6167,156.5,359.6167" style="stroke:#181818;stroke-width:1.0;"/><line style="stroke:#181818;stroke-width:1.0;" x1="334.5" x2="413.5" y1="343.6167" y2="343.6167"/><line style="stroke:#181818;stroke-width:1.0;" x1="413.5" x2="413.5" y1="343.6167" y2="365.6167"/><polygon fill="#181818" points="409.5,355.6167,413.5,365.6167,417.5,355.6167,413.5,359.6167" style="stroke:#181818;stroke-width:1.0;"/><line style="stroke:#181818;stroke-width:1.0;" x1="156.5" x2="156.5" y1="507.5229" y2="525.5229"/><line style="stroke:#181818;stroke-width:1.0;" x1="156.5" x2="273" y1="525.5229" y2="525.5229"/><polygon fill="#181818" points="263,521.5229,273,525.5229,263,529.5229,267,525.5229" style="stroke:#181818;stroke-width:1.0;"/><line style="stroke:#181818;stroke-width:1.0;" x1="413.5" x2="413.5" y1="507.5229" y2="525.5229"/><line style="stroke:#181818;stroke-width:1.0;" x1="413.5" x2="297" y1="525.5229" y2="525.5229"/><polygon fill="#181818" points="307,521.5229,297,525.5229,307,529.5229,303,525.5229" style="stroke:#181818;stroke-width:1.0;"/><line style="stroke:#181818;stroke-width:1.0;" x1="285" x2="285" y1="311.6167" y2="331.6167"/><polygon fill="#181818" points="281,321.6167,285,331.6167,289,321.6167,285,325.6167" style="stroke:#181818;stroke-width:1.0;"/><line style="stroke:#181818;stroke-width:1.0;" x1="285" x2="285" y1="181.9375" y2="213.6479"/><polygon fill="#181818" points="281,203.6479,285,213.6479,289,203.6479,285,207.6479" style="stroke:#181818;stroke-width:1.0;"/><line style="stroke:#181818;stroke-width:1.0;" x1="285" x2="285" y1="537.5229" y2="547.5229"/><line style="stroke:#181818;stroke-width:1.0;" x1="285" x2="546" y1="547.5229" y2="547.5229"/><polygon fill="#181818" points="542,374.6831,546,364.6831,550,374.6831,546,370.6831" style="stroke:#181818;stroke-width:1.0;"/><line style="stroke:#181818;stroke-width:1.0;" x1="546" x2="546" y1="169.9375" y2="547.5229"/><line style="stroke:#181818;stroke-width:1.0;" x1="546" x2="328" y1="169.9375" y2="169.9375"/><polygon fill="#181818" points="338,165.9375,328,169.9375,338,173.9375,334,169.9375" style="stroke:#181818;stroke-width:1.0;"/><line style="stroke:#181818;stroke-width:1.0;" x1="242" x2="24" y1="169.9375" y2="169.9375"/><polygon fill="#181818" points="20,360.6831,24,370.6831,28,360.6831,24,364.6831" style="stroke:#181818;stroke-width:1.0;"/><line style="stroke:#181818;stroke-width:1.0;" x1="24" x2="24" y1="169.9375" y2="559.5229"/><line style="stroke:#181818;stroke-width:1.0;" x1="24" x2="285" y1="559.5229" y2="559.5229"/><line style="stroke:#181818;stroke-width:1.0;" x1="285" x2="285" y1="559.5229" y2="579.5229"/><polygon fill="#181818" points="281,569.5229,285,579.5229,289,569.5229,285,573.5229" style="stroke:#181818;stroke-width:1.0;"/><line style="stroke:#181818;stroke-width:1.0;" x1="285" x2="285" y1="137.9375" y2="157.9375"/><polygon fill="#181818" points="281,147.9375,285,157.9375,289,147.9375,285,151.9375" style="stroke:#181818;stroke-width:1.0;"/><line style="stroke:#181818;stroke-width:1.0;" x1="285" x2="285" y1="661.894" y2="681.894"/><polygon fill="#181818" points="281,671.894,285,681.894,289,671.894,285,675.894" style="stroke:#181818;stroke-width:1.0;"/><line style="stroke:#181818;stroke-width:1.0;" x1="285" x2="285" y1="715.8628" y2="735.8628"/><polygon fill="#181818" points="281,725.8628,285,735.8628,289,725.8628,285,729.8628" style="stroke:#181818;stroke-width:1.0;"/><line style="stroke:#181818;stroke-width:1.0;" x1="285" x2="285" y1="603.5229" y2="627.9253"/><polygon fill="#181818" points="281,617.9253,285,627.9253,289,617.9253,285,621.9253" style="stroke:#181818;stroke-width:1.0;"/><line style="stroke:#181818;stroke-width:1.0;" x1="328" x2="359.5" y1="591.5229" y2="591.5229"/><polygon fill="#181818" points="355.5,688.8784,359.5,698.8784,363.5,688.8784,359.5,692.8784" style="stroke:#181818;stroke-width:1.0;"/><line style="stroke:#181818;stroke-width:1.0;" x1="359.5" x2="359.5" y1="591.5229" y2="801.8315"/><line style="stroke:#181818;stroke-width:1.0;" x1="359.5" x2="297" y1="801.8315" y2="801.8315"/><polygon fill="#181818" points="307,797.8315,297,801.8315,307,805.8315,303,801.8315" style="stroke:#181818;stroke-width:1.0;"/><line style="stroke:#181818;stroke-width:1.0;" x1="285" x2="285" y1="769.8315" y2="789.8315"/><polygon fill="#181818" points="281,779.8315,285,789.8315,289,779.8315,285,783.8315" style="stroke:#181818;stroke-width:1.0;"/><line style="stroke:#181818;stroke-width:1.0;" x1="285" x2="285" y1="813.8315" y2="833.8315"/><polygon fill="#181818" points="281,823.8315,285,833.8315,289,823.8315,285,827.8315" style="stroke:#181818;stroke-width:1.0;"/><!--MD5=[f9d27505f94bcc60e8209c98e8c4c406]
@startuml
start
:Affiche "Entrez un nombre";
:Saisis texte //t//;

while (//t// égal à //f// ?) is (non)

if (//t// entier ?) then (oui)
	:Affiche "C'est un entier";
else (non)
	:Affiche "C'est un réel";
endif

if (//f// inférieur à //t//) then (non)
    :Affiche "Trop grand!";
    :Affiche "Entrez un nouveau nombre";
    :Saisis texte //t//;
else(oui)
    :Affiche "Trop petit!";
    :Affiche "Entrez un nouveau nombre";
    :Saisis texte //t//;
endif

endwhile (oui)
if (//t// égal à //f// ?) then (oui)
	:Affiche "oui ";
        :Ajoute 1 au score;
	:Affiche "Score=  ";
endif
stop
@enduml

PlantUML version 1.2022.2beta6(Unknown compile time)
(GPL source distribution)
Java Runtime: Java(TM) SE Runtime Environment
JVM: Java HotSpot(TM) 64-Bit Server VM
Default Encoding: UTF-8
Language: en
Country: US
--></g></svg>